<?xml version="1.0" encoding="UTF-8" standalone="no" ?>
<!DOCTYPE svg PUBLIC "-//W3C//DTD SVG 1.1//EN" "http://www.w3.org/Graphics/SVG/1.1/DTD/svg11.dtd">
<svg xmlns="http://www.w3.org/2000/svg" xmlns:xlink="http://www.w3.org/1999/xlink" version="1.1" width="1080" height="1080" viewBox="0 0 1080 1080" xml:space="preserve">
<desc>Created with Fabric.js 5.2.4</desc>
<defs>
</defs>
<g transform="matrix(1 0 0 1 540 540)" id="2e1d5459-af2f-435d-8b20-4ba16b90276c"  >
<rect style="stroke: none; stroke-width: 1; stroke-dasharray: none; stroke-linecap: butt; stroke-dashoffset: 0; stroke-linejoin: miter; stroke-miterlimit: 4; fill: rgb(255,255,255); fill-rule: nonzero; opacity: 1; visibility: hidden;" vector-effect="non-scaling-stroke"  x="-540" y="-540" rx="0" ry="0" width="1080" height="1080" />
</g>
<g transform="matrix(1 0 0 1 540 540)" id="1cc3be0d-e75f-4cba-83b2-cac8d6843c08"  >
</g>
<g transform="matrix(12.24 0 0 12.24 540 540)"  >
<path style="stroke: none; stroke-width: 1; stroke-dasharray: none; stroke-linecap: butt; stroke-dashoffset: 0; stroke-linejoin: miter; stroke-miterlimit: 4; fill: rgb(48,100,232); fill-rule: nonzero; opacity: 1;" vector-effect="non-scaling-stroke"  transform=" translate(-45, -45)" d="M 65.532 53.661 C 68.005 51.32 67.613 48.016000000000005 64.663 46.32 L 59.1 43.118 C 56.15 41.421 54.377 37.321000000000005 55.159 34.009 L 61.858 5.611000000000001 C 62.638999999999996 2.299000000000001 61.256 1.503000000000001 58.785 3.8440000000000007 L 24.467 36.339 C 21.994999999999997 38.68 22.387 41.983 25.337 43.681 L 30.899 46.881 C 33.848 48.579 35.623000000000005 52.679 34.842 55.99 L 28.141 84.388 C 27.360999999999997 87.7 28.743 88.495 31.214999999999996 86.155 L 65.532 53.661 z" stroke-linecap="round" />
</g>
<g transform="matrix(NaN NaN NaN NaN 0 0)"  >
<g style=""   >
</g>
</g>
<g transform="matrix(NaN NaN NaN NaN 0 0)"  >
<g style=""   >
</g>
</g>
</svg>