<?xml version="1.0" encoding="UTF-8" standalone="no" ?>
<!DOCTYPE svg PUBLIC "-//W3C//DTD SVG 1.1//EN" "http://www.w3.org/Graphics/SVG/1.1/DTD/svg11.dtd">
<svg xmlns="http://www.w3.org/2000/svg" xmlns:xlink="http://www.w3.org/1999/xlink" version="1.1" width="1080" height="1080" viewBox="0 0 1080 1080" xml:space="preserve">
<desc>Created with Fabric.js 5.2.4</desc>
<defs>
</defs>
<g transform="matrix(1 0 0 1 540 540)" id="f524c1c2-b427-4f50-bbbe-7b569b2f2e76"  >
<rect style="stroke: none; stroke-width: 1; stroke-dasharray: none; stroke-linecap: butt; stroke-dashoffset: 0; stroke-linejoin: miter; stroke-miterlimit: 4; fill: rgb(255,255,255); fill-rule: nonzero; opacity: 1; visibility: hidden;" vector-effect="non-scaling-stroke"  x="-540" y="-540" rx="0" ry="0" width="1080" height="1080" />
</g>
<g transform="matrix(1 0 0 1 540 540)" id="84b562ec-5c66-4144-a65e-ddc8f8613ce7"  >
</g>
<g transform="matrix(NaN NaN NaN NaN 0 0)"  >
<g style=""   >
</g>
</g>
<g transform="matrix(NaN NaN NaN NaN 0 0)"  >
<g style=""   >
</g>
</g>
<g transform="matrix(NaN NaN NaN NaN 0 0)"  >
<g style=""   >
</g>
</g>
<g transform="matrix(6.22 0 0 6.22 556.63 828.34)"  >
<g style=""   >
		<g transform="matrix(2.69 0 0 2.69 -0.24 -45.78)" id="SvgjsG1007"  >
<path style="stroke: none; stroke-width: 1; stroke-dasharray: none; stroke-linecap: butt; stroke-dashoffset: 0; stroke-linejoin: miter; stroke-miterlimit: 4; fill: rgb(255,255,255); fill-rule: nonzero; opacity: 1;" vector-effect="non-scaling-stroke"  transform=" translate(-45, -45)" d="M 65.532 53.661 C 68.005 51.32 67.613 48.016000000000005 64.663 46.32 L 59.1 43.118 C 56.15 41.421 54.377 37.321000000000005 55.159 34.009 L 61.858 5.611000000000001 C 62.638999999999996 2.299000000000001 61.256 1.503000000000001 58.785 3.8440000000000007 L 24.467 36.339 C 21.994999999999997 38.68 22.387 41.983 25.337 43.681 L 30.899 46.881 C 33.848 48.579 35.623000000000005 52.679 34.842 55.99 L 28.141 84.388 C 27.360999999999997 87.7 28.743 88.495 31.214999999999996 86.155 L 65.532 53.661 z" stroke-linecap="round" />
</g>
		<g transform="matrix(2.43 0 0 2.43 0 124)" id="SvgjsG1008"  >
<path style="stroke: none; stroke-width: 1; stroke-dasharray: none; stroke-linecap: butt; stroke-dashoffset: 0; stroke-linejoin: miter; stroke-miterlimit: 4; fill: rgb(255,255,255); fill-rule: nonzero; opacity: 1;" vector-effect="non-scaling-stroke"  transform=" translate(-61.09, -25.5)" d="M 5.48 40.24 C 2.4400000000000004 40.24 0 37.760000000000005 0 34.760000000000005 L 0 30.400000000000006 L 3.88 30.400000000000006 L 3.88 34.760000000000005 C 3.88 35.64000000000001 4.6 36.36000000000001 5.48 36.36000000000001 C 6.360000000000001 36.36000000000001 7.040000000000001 35.64000000000001 7.040000000000001 34.760000000000005 L 7.040000000000001 30.960000000000004 L 8.881784197001252e-16 21.240000000000002 L 8.881784197001252e-16 16.28 C 8.881784197001252e-16 13.240000000000002 2.440000000000001 10.760000000000002 5.480000000000001 10.760000000000002 C 8.48 10.760000000000002 10.920000000000002 13.240000000000002 10.920000000000002 16.28 L 10.920000000000002 20.6 L 7.040000000000002 20.6 L 7.040000000000002 16.28 C 7.040000000000002 15.360000000000001 6.360000000000002 14.680000000000001 5.480000000000002 14.680000000000001 C 4.600000000000002 14.680000000000001 3.880000000000002 15.360000000000001 3.880000000000002 16.28 L 3.880000000000002 19.92 L 10.920000000000002 29.64 L 10.920000000000002 34.76 C 10.920000000000002 37.76 8.480000000000002 40.239999999999995 5.480000000000001 40.239999999999995 z M 22.148 11.440000000000001 L 25.948 11.440000000000001 L 25.948 39.96 L 22.148 39.96 L 22.148 24.880000000000003 L 18.748 24.880000000000003 L 18.748 39.96 L 14.948 39.96 L 14.948 11.440000000000001 L 18.748 11.440000000000001 L 18.748 21.12 L 22.148 21.12 L 22.148 11.440000000000001 z M 39.936 40 L 38.496 30.119999999999997 L 34.456 30.119999999999997 L 33.136 40 L 29.296000000000003 40 L 33.616 11.399999999999999 L 38.775999999999996 11.399999999999999 L 43.775999999999996 40 L 39.93599999999999 40 z M 34.976 26.32 L 37.936 26.32 L 36.416 15.92 z M 58.204 40.08 L 54.124 40.08 L 51.924 34.04 L 51.044 34.04 L 51.044 40.08 L 47.244 40.08 L 47.244 11.439999999999998 L 53.204 11.439999999999998 C 55.844 11.439999999999998 57.964 13.559999999999999 57.964 16.199999999999996 L 57.964 29.279999999999994 C 57.964 30.999999999999993 57.083999999999996 32.48 55.724 33.31999999999999 z M 51.044 15.239999999999998 L 51.044 30.24 L 53.20399999999999 30.24 C 53.724 30.24 54.163999999999994 29.799999999999997 54.163999999999994 29.279999999999998 L 54.163999999999994 16.199999999999996 C 54.163999999999994 15.679999999999996 53.724 15.239999999999995 53.20399999999999 15.239999999999995 L 51.044 15.239999999999995 z M 71.55199999999999 24.92 L 66.032 24.92 L 66.032 36.2 L 71.592 36.2 L 71.592 40 L 62.232 40 L 62.232 11.440000000000001 L 71.592 11.440000000000001 L 71.592 15.240000000000002 L 66.032 15.240000000000002 L 66.032 21.12 L 71.55199999999999 21.12 L 71.55199999999999 24.92 z M 80.98 39.92 C 78.02000000000001 39.92 75.62 37.52 75.62 34.56 L 75.62 16.8 C 75.62 13.84 78.02000000000001 11.440000000000001 80.98 11.440000000000001 C 83.94 11.440000000000001 86.34 13.840000000000002 86.34 16.8 L 86.34 18.400000000000002 L 82.54 18.400000000000002 L 82.54 16.8 C 82.54 15.96 81.82000000000001 15.24 80.98 15.24 C 80.14 15.24 79.42 15.96 79.42 16.8 L 79.42 34.56 C 79.42 35.400000000000006 80.14 36.120000000000005 80.98 36.120000000000005 C 81.82000000000001 36.120000000000005 82.54 35.400000000000006 82.54 34.56 L 82.54 32 L 86.34 32 L 86.34 34.56 C 86.34 37.52 83.94 39.92 80.98 39.92 z M 94.12800000000001 36.24 L 99.64800000000001 36.24 L 99.64800000000001 40 L 90.36800000000001 40 L 90.36800000000001 11.280000000000001 L 94.12800000000001 11.280000000000001 L 94.12800000000001 36.24 z M 107.47600000000001 11.36 L 107.47600000000001 39.84 L 103.67600000000002 39.84 L 103.67600000000002 11.360000000000003 L 107.47600000000001 11.360000000000003 z M 115.30400000000002 34 L 115.30400000000002 39.96 L 111.50400000000002 39.96 L 111.50400000000002 11.440000000000001 L 117.42400000000002 11.440000000000001 C 120.06400000000002 11.440000000000001 122.18400000000003 13.600000000000001 122.18400000000003 16.240000000000002 L 122.18400000000003 29.240000000000002 C 122.18400000000003 31.880000000000003 120.06400000000002 34 117.42400000000002 34 L 115.30400000000002 34 z M 115.30400000000002 15.239999999999998 L 115.30400000000002 30.2 L 117.42400000000002 30.2 C 117.98400000000002 30.2 118.38400000000001 29.8 118.38400000000001 29.24 L 118.38400000000001 16.24 C 118.38400000000001 15.679999999999998 117.98400000000001 15.239999999999998 117.42400000000002 15.239999999999998 L 115.30400000000002 15.239999999999998 z" stroke-linecap="round" />
</g>
</g>
</g>
</svg>